<svg version="1.1" id="Layer_1" xmlns="http://www.w3.org/2000/svg" xmlns:xlink="http://www.w3.org/1999/xlink" x="0px" y="0px" viewBox="0 0 42.5 42.6" style="enable-background:new 0 0 42.5 42.6;" xml:space="preserve">
 <style type="text/css">
  .st0{fill-rule:evenodd;clip-rule:evenodd;fill:#FF9E1A;}
	.st1{fill-rule:evenodd;clip-rule:evenodd;fill:#1856ED;}
 </style>
 <g>
  <g>
   <path class="st0" d="M27.4,17.5c0.4,1.1,1.4,1.8,2.6,1.8c0.3,0,0.6-0.1,0.9-0.2c1.4-0.5,2.2-2.1,1.7-3.5c-0.9-2.5-2.8-4.5-5.4-5.7
			c-1.4-0.6-3,0-3.7,1.4c-0.6,1.4,0,3,1.4,3.7C26.2,15.5,27.1,16.4,27.4,17.5z">
   </path>
   <path class="st0" d="M26.5,0.1c-1.5-0.3-2.9,0.7-3.2,2.2c-0.3,1.5,0.7,2.9,2.2,3.2C31.7,6.8,36,10.9,37,17
			c0.2,1.4,1.4,2.3,2.7,2.3c0.2,0,0.3,0,0.5-0.1c1.5-0.3,2.5-1.7,2.3-3.2C41,7.7,35,1.7,26.5,0.1z">
   </path>
   <path class="st1" d="M19.5,27.7c-2.5,0-4.6-2-4.6-4.6c0-2.5,2-4.6,4.6-4.6c1.5,0,2.8-1.2,2.8-2.8c0-1.5-1.2-2.8-2.8-2.8
			c-5.6,0-10.1,4.5-10.1,10.1s4.5,10.1,10.1,10.1c5.6,0,10.1-4.5,10.1-10.1c0-1.5-1.2-2.8-2.8-2.8c-1.5,0-2.8,1.2-2.8,2.8
			C24.1,25.6,22,27.7,19.5,27.7z">
   </path>
   <path class="st1" d="M36.2,20.3c-1.5,0-2.8,1.2-2.8,2.8c0,7.7-6.3,14-14,14s-14-6.3-14-14c0-7.7,6.3-14,14-14
			c1.5,0,2.8-1.2,2.8-2.8c0-1.5-1.2-2.8-2.8-2.8C8.8,3.6,0,12.4,0,23.1c0,10.7,8.8,19.5,19.5,19.5c10.7,0,19.5-8.8,19.5-19.5
			C38.9,21.6,37.7,20.3,36.2,20.3z">
   </path>
  </g>
 </g>
</svg>