<?xml version="1.0" encoding="utf-8"?>
<!-- Generator: Adobe Illustrator 28.1.0, SVG Export Plug-In . SVG Version: 6.00 Build 0)  -->
<svg version="1.1" id="Layer_1" xmlns="http://www.w3.org/2000/svg" xmlns:xlink="http://www.w3.org/1999/xlink" x="0px" y="0px"
	 viewBox="0 0 252 378" style="enable-background:new 0 0 252 378;" xml:space="preserve">
<style type="text/css">
	.st0{fill:#F6EFED;}
	.st1{fill:#F7F0ED;}
	.st2{fill:#FFFFFF;}
	.st3{fill:#191513;}
	.st4{fill:#1A1615;}
	.st5{fill:#E81C1C;}
</style>
<path class="st5" d="M126,0l17.5,30.4c3.6,6.3,3.6,14,0,20.2L40.1,230.9l48.8,85.1c11.6,20.5,37.7,27.8,58.2,16.2
	c6.8-3.8,12.3-9.4,16.2-16.2l48.8-85.1l-13.2-23l-55.3,96.5c-5.6,9.7-17.9,13-27.6,7.4c-3.1-1.8-5.6-4.3-7.4-7.4l-42-73.5l96-167.4
	L180,93.9c3.6,6.3,3.6,14,0,20.3L113,230.7l13.2,23L199,126.8l47.5,83.2c7.3,12.8,7.3,28.6,0,41.4L198,336c-7.5,13-30.4,42-72.1,42
	S61.4,349.1,54,336L5.5,251.4c-7.3-12.8-7.3-28.6,0-41.4L126,0"/>
</svg>
